# xmcd
#
# Track frame offsets:
#	150
#	14917
#	32399
#	47400
#	61667
#	79794
#	99594
#	114926
#	140544
#	157777
#	175760
#	194956
#	215926
#	234804
#	256043
#	270927
#	301412
#	319240
#
# Disc length: 4492 seconds
#
# Revision: 0
# Processed by: cddbd v1.5.1PL2 Copyright (c) Steve Scherf et al.
# Submitted via: dBpowerAMP V4.0
#
DISCID=e9118a12
DTITLE=Barry White - The Ultimate Collection
DYEAR=1900
DGENRE=
TTITLE0=You're the first, the last, My everything
TTITLE1=Can't get enough of your love babe
TTITLE2=Let the music play
TTITLE3=Don't make me wait too long
TTITLE4=I'll do for you anything you want me to
TTITLE5=Sho'you right
TTITLE6=What am I gonna do with you
TTITLE7=Come on
TTITLE8=I'm gonna love you just a little bit more babe
TTITLE9=Never never gonna give you up'
TTITLE10=Baby we'll better try and get it together
TTITLE11=Just the way you are
TTITLE12=I'm qualified to satify you
TTITLE13=Dark a lovely (you over there)
TTITLE14=You're the trouble with me
TTITLE15=It's ecstasy when you lay down next to me
TTITLE16=The right night
TTITLE17=Love's theme
EXTD=
EXTT0=
EXTT1=
EXTT2=
EXTT3=
EXTT4=
EXTT5=
EXTT6=
EXTT7=
EXTT8=
EXTT9=
EXTT10=
EXTT11=
EXTT12=
EXTT13=
EXTT14=
EXTT15=
EXTT16=
EXTT17=
PLAYORDER=
